<svg version="1.1" id="Layer_1" xmlns="http://www.w3.org/2000/svg" xmlns:xlink="http://www.w3.org/1999/xlink" x="0px" y="0px"
	 width="100%" viewBox="0 0 512 512" enable-background="new 0 0 512 512" xml:space="preserve">
<path fill="#000000" opacity="1.000000" stroke="none" 
	d="
M290.000000,513.000000 
	C193.356796,513.000000 97.213585,513.000000 1.035192,513.000000 
	C1.035192,342.398438 1.035192,171.796860 1.035192,1.097646 
	C171.559891,1.097646 342.119843,1.097646 512.839905,1.097646 
	C512.839905,171.666550 512.839905,342.333252 512.839905,513.000000 
	C438.796844,513.000000 364.648407,513.000000 290.000000,513.000000 
M286.267395,24.067944 
	C281.470276,27.186190 276.732147,27.278662 271.864105,24.085976 
	C269.938843,22.823315 267.513214,22.295721 265.659546,20.956970 
	C259.820526,16.739937 254.215591,16.946939 248.568192,21.216587 
	C240.495010,27.320234 232.289383,27.875572 224.004105,21.649233 
	C217.366898,16.661400 211.005280,16.978859 204.158112,21.648481 
	C201.459579,23.488813 199.850494,24.703501 199.865677,28.326815 
	C200.026825,66.774025 199.962616,105.222168 199.976395,143.670059 
	C199.976959,145.256058 200.134964,146.842010 200.232468,148.668304 
	C218.294693,148.668304 235.916138,148.704926 253.537338,148.654984 
	C264.675354,148.623413 275.813019,148.462662 287.854797,148.647232 
	C296.464203,148.647232 305.073608,148.647232 314.048462,148.647232 
	C314.048462,146.358032 314.048462,144.557526 314.048462,142.757019 
	C314.048462,106.134460 313.812958,69.509087 314.250671,32.891758 
	C314.336426,25.720867 312.709808,21.180197 305.724304,19.218039 
	C303.657745,18.637560 301.210571,17.394138 299.487610,18.005054 
	C295.158234,19.540131 291.142761,21.960499 286.267395,24.067944 
M371.855469,147.413681 
	C367.989044,142.478989 366.500885,136.796738 366.521271,130.619934 
	C366.544922,123.454094 366.524719,116.288116 366.524017,109.122200 
	C366.523560,104.525520 366.523926,99.928841 366.523926,95.343109 
	C353.601227,95.343109 341.503418,95.343109 329.339294,95.343109 
	C329.339294,113.176735 329.339294,130.734024 329.339294,148.777679 
	C335.947479,148.777679 342.255096,148.618744 348.549835,148.834610 
	C352.619659,148.974182 354.997070,151.506622 355.268280,155.532257 
	C355.554474,159.780746 353.406158,162.487946 349.187897,163.362671 
	C348.058838,163.596817 346.872955,163.631927 345.713135,163.632156 
	C286.552673,163.644363 227.392197,163.653702 168.231735,163.627090 
	C161.901978,163.624237 158.591125,160.872757 158.661926,155.982605 
	C158.732315,151.120895 161.920181,148.728775 168.479202,148.689270 
	C173.910370,148.656555 179.341873,148.682571 184.590302,148.682571 
	C184.590302,130.374649 184.590302,112.805832 184.590302,95.343292 
	C172.111221,95.343292 160.016449,95.343292 147.475662,95.343292 
	C147.475662,106.914841 147.524734,118.217751 147.464279,129.520081 
	C147.371307,146.900574 137.196396,157.159561 119.892502,157.411194 
	C118.324738,157.433990 116.756340,157.414230 114.994995,157.414230 
	C114.994995,176.708862 115.100418,195.200562 114.958168,213.690369 
	C114.862366,226.141403 118.478905,237.249252 125.894257,247.213287 
	C131.461060,254.693451 136.747635,262.387177 142.464066,269.748901 
	C145.293930,273.393250 146.304581,277.155518 146.297211,281.715668 
	C146.192581,346.375366 146.218277,411.035309 146.232407,475.695190 
	C146.235565,490.181488 154.013580,498.000580 168.368576,498.003082 
	C216.363541,498.011414 264.358521,498.012695 312.353485,497.999084 
	C319.182556,497.997131 326.011627,497.897919 333.798492,497.994202 
	C337.795074,498.001495 341.791718,498.020508 345.788269,498.013977 
	C359.825684,497.990967 367.738098,490.119110 367.781921,476.075226 
	C367.817780,464.585022 367.852386,453.094147 367.761597,441.604553 
	C367.728729,437.446106 369.380188,434.793060 373.217987,433.007935 
	C374.529694,432.397797 376.061890,430.045319 375.849670,428.760406 
	C374.949432,423.310303 379.291290,416.385437 373.447601,412.627380 
	C369.254395,409.930725 367.748779,407.259857 367.755371,402.711273 
	C367.814697,361.745880 367.732178,320.780060 367.915344,279.815399 
	C367.928345,276.906555 369.129578,273.608704 370.782593,271.173370 
	C376.386841,262.916870 382.391205,254.928726 388.340576,246.910690 
	C394.124115,239.116104 398.375946,230.459290 398.612427,220.815674 
	C399.125916,199.875351 398.770813,178.913727 398.770813,157.304962 
	C388.460541,158.277557 379.200226,156.071182 371.855469,147.413681 
M389.742981,100.729813 
	C387.256287,99.277748 384.769562,97.825691 381.442810,95.883095 
	C381.442810,107.320816 381.435120,117.569969 381.444794,127.819115 
	C381.456177,139.835632 386.836395,144.213562 399.014526,141.850037 
	C399.014526,135.113251 398.926239,128.317123 399.037292,121.524277 
	C399.170105,113.398407 396.322021,106.625435 389.742981,100.729813 
M129.596985,139.059570 
	C130.581390,135.819275 132.274475,132.609314 132.414734,129.332886 
	C132.805023,120.216812 132.550446,111.073135 132.550537,101.940361 
	C132.550552,100.236237 132.550537,98.532112 132.550537,96.193481 
	C122.316620,100.296890 116.349068,106.976776 115.339714,116.799538 
	C114.483627,125.130608 115.163116,133.619461 115.163116,142.299805 
	C120.215996,142.506683 125.030800,143.234650 129.596985,139.059570 
z"/>
<path fill="#61D8F7" opacity="1.000000" stroke="none" 
	d="
M332.840698,497.843719 
	C326.011627,497.897919 319.182556,497.997131 312.353485,497.999084 
	C264.358521,498.012695 216.363541,498.011414 168.368576,498.003082 
	C154.013580,498.000580 146.235565,490.181488 146.232407,475.695190 
	C146.218277,411.035309 146.192581,346.375366 146.297211,281.715668 
	C146.304581,277.155518 145.293930,273.393250 142.464066,269.748901 
	C136.747635,262.387177 131.461060,254.693451 125.894257,247.213287 
	C118.478905,237.249252 114.862366,226.141403 114.958168,213.690369 
	C115.100418,195.200562 114.994995,176.708862 114.994995,157.414230 
	C116.756340,157.414230 118.324738,157.433990 119.892502,157.411194 
	C137.196396,157.159561 147.371307,146.900574 147.464279,129.520081 
	C147.524734,118.217751 147.475662,106.914841 147.475662,95.343292 
	C160.016449,95.343292 172.111221,95.343292 184.590302,95.343292 
	C184.590302,112.805832 184.590302,130.374649 184.590302,148.682571 
	C179.341873,148.682571 173.910370,148.656555 168.479202,148.689270 
	C161.920181,148.728775 158.732315,151.120895 158.661926,155.982605 
	C158.591125,160.872757 161.901978,163.624237 168.231735,163.627090 
	C227.392197,163.653702 286.552673,163.644363 345.713135,163.632156 
	C346.872955,163.631927 348.058838,163.596817 349.187897,163.362671 
	C353.406158,162.487946 355.554474,159.780746 355.268280,155.532257 
	C354.997070,151.506622 352.619659,148.974182 348.549835,148.834610 
	C342.255096,148.618744 335.947479,148.777679 329.339294,148.777679 
	C329.339294,130.734024 329.339294,113.176735 329.339294,95.343109 
	C341.503418,95.343109 353.601227,95.343109 366.523926,95.343109 
	C366.523926,99.928841 366.523560,104.525520 366.524017,109.122200 
	C366.524719,116.288116 366.544922,123.454094 366.521271,130.619934 
	C366.500885,136.796738 367.989044,142.478989 371.936127,148.212646 
	C372.013336,170.611282 372.353790,192.219437 371.821533,213.806046 
	C371.633026,221.452209 370.418579,229.475159 367.662689,236.542374 
	C364.929749,243.550888 359.666077,249.572540 355.491699,255.557037 
	C355.465027,234.927139 355.491821,214.767120 355.434998,194.607346 
	C355.415436,187.672150 352.876984,185.017105 346.285278,185.010605 
	C312.130066,184.976929 277.974731,184.977295 243.819519,185.012604 
	C238.091110,185.018524 236.011566,186.927277 234.345825,192.816360 
	C227.607391,192.811417 221.324463,192.802139 214.939285,192.458710 
	C213.958572,186.955063 210.745773,184.928879 205.678589,184.966446 
	C193.680222,185.055420 181.680771,184.990814 169.681747,184.995758 
	C160.565186,184.999512 158.511215,187.020279 158.510437,196.127457 
	C158.502579,288.953186 158.502762,381.778931 158.509354,474.604645 
	C158.510025,483.903564 160.565353,485.881012 170.106400,485.881317 
	C224.435287,485.883087 278.764160,485.880219 333.093048,485.890045 
	C335.088196,485.890411 337.083313,486.006927 339.056580,486.438843 
	C336.970001,490.486786 334.905334,494.165253 332.840698,497.843719 
z"/>
<path fill="#FEF8E1" opacity="1.000000" stroke="none" 
	d="
M286.950867,148.359833 
	C275.813019,148.462662 264.675354,148.623413 253.537338,148.654984 
	C235.916138,148.704926 218.294693,148.668304 200.232468,148.668304 
	C200.134964,146.842010 199.976959,145.256058 199.976395,143.670059 
	C199.962616,105.222168 200.026825,66.774025 199.865677,28.326815 
	C199.850494,24.703501 201.459579,23.488813 204.158112,21.648481 
	C211.005280,16.978859 217.366898,16.661400 224.004105,21.649233 
	C232.289383,27.875572 240.495010,27.320234 248.568192,21.216587 
	C254.215591,16.946939 259.820526,16.739937 265.659546,20.956970 
	C267.513214,22.295721 269.938843,22.823315 271.864105,24.085976 
	C276.732147,27.278662 281.470276,27.186190 286.635437,24.513853 
	C287.002014,33.307411 287.000519,41.655060 286.540192,50.104973 
	C266.597076,50.215923 247.112793,50.214855 227.628525,50.238693 
	C221.009354,50.246792 217.347397,52.953766 217.321472,57.771587 
	C217.295517,62.593658 220.879288,65.231209 227.559143,65.260933 
	C232.721573,65.283905 237.884262,65.245934 243.046677,65.269310 
	C257.693939,65.335625 272.341125,65.419518 286.985840,65.924744 
	C286.986389,69.876045 286.989380,73.399086 286.531372,77.009293 
	C270.583710,77.102867 255.097092,77.109306 239.610474,77.115623 
	C234.781296,77.117599 229.947266,76.985222 225.124344,77.159737 
	C220.546494,77.325378 217.338806,80.556999 217.318253,84.628448 
	C217.297440,88.748878 220.441055,91.817383 225.053345,92.092690 
	C226.713074,92.191757 228.382675,92.128189 230.047806,92.133911 
	C249.025894,92.199135 268.003998,92.263390 286.981079,92.765427 
	C286.982697,96.748405 286.985321,100.293854 286.525024,103.911331 
	C280.764130,103.987885 275.464661,103.917679 270.168427,104.017952 
	C264.857819,104.118507 261.707062,107.117561 261.826019,111.736664 
	C261.939056,116.127708 265.026794,118.888321 270.111694,118.990059 
	C275.735962,119.102600 281.362366,119.108353 286.994690,119.619148 
	C286.984680,129.505081 286.967773,138.932465 286.950867,148.359833 
z"/>
<path fill="#02C9F2" opacity="1.000000" stroke="none" 
	d="
M333.319580,497.918945 
	C334.905334,494.165253 336.970001,490.486786 339.496216,486.352295 
	C342.457367,485.882629 344.963470,485.979187 347.455170,485.832214 
	C352.445618,485.537903 355.035309,482.955231 355.378479,477.997772 
	C355.504822,476.172760 355.427307,474.333069 355.428070,472.500061 
	C355.457214,400.342377 355.484680,328.184692 355.512360,256.027008 
	C359.666077,249.572540 364.929749,243.550888 367.662689,236.542374 
	C370.418579,229.475159 371.633026,221.452209 371.821533,213.806046 
	C372.353790,192.219437 372.013336,170.611282 372.048767,148.554337 
	C379.200226,156.071182 388.460541,158.277557 398.770813,157.304962 
	C398.770813,178.913727 399.125916,199.875351 398.612427,220.815674 
	C398.375946,230.459290 394.124115,239.116104 388.340576,246.910690 
	C382.391205,254.928726 376.386841,262.916870 370.782593,271.173370 
	C369.129578,273.608704 367.928345,276.906555 367.915344,279.815399 
	C367.732178,320.780060 367.814697,361.745880 367.755371,402.711273 
	C367.748779,407.259857 369.254395,409.930725 373.447601,412.627380 
	C379.291290,416.385437 374.949432,423.310303 375.849670,428.760406 
	C376.061890,430.045319 374.529694,432.397797 373.217987,433.007935 
	C369.380188,434.793060 367.728729,437.446106 367.761597,441.604553 
	C367.852386,453.094147 367.817780,464.585022 367.781921,476.075226 
	C367.738098,490.119110 359.825684,497.990967 345.788269,498.013977 
	C341.791718,498.020508 337.795074,498.001495 333.319580,497.918945 
z"/>
<path fill="#F8EEC2" opacity="1.000000" stroke="none" 
	d="
M286.999023,50.002708 
	C287.000519,41.655060 287.002014,33.307411 287.002472,24.492832 
	C291.142761,21.960499 295.158234,19.540131 299.487610,18.005054 
	C301.210571,17.394138 303.657745,18.637560 305.724304,19.218039 
	C312.709808,21.180197 314.336426,25.720867 314.250671,32.891758 
	C313.812958,69.509087 314.048462,106.134460 314.048462,142.757019 
	C314.048462,144.557526 314.048462,146.358032 314.048462,148.647232 
	C305.073608,148.647232 296.464203,148.647232 287.402832,148.503540 
	C286.967773,138.932465 286.984680,129.505081 287.392456,119.542465 
	C291.429779,119.192116 294.832153,118.080376 295.755341,114.467796 
	C296.364288,112.084831 295.963043,108.513626 294.483429,106.783478 
	C292.943268,104.982513 289.563385,104.754890 286.987915,103.839310 
	C286.985321,100.293854 286.982697,96.748405 287.377380,92.671799 
	C291.593048,92.245392 295.226837,91.161667 295.896332,87.158875 
	C296.319214,84.630463 295.378754,81.219292 293.780670,79.217041 
	C292.527161,77.646530 289.327454,77.629372 286.992371,76.922119 
	C286.989380,73.399086 286.986389,69.876045 287.382568,65.815582 
	C292.324615,65.377068 296.158142,63.647545 296.255402,58.880264 
	C296.307831,56.309391 294.080444,53.384350 292.197968,51.211342 
	C291.255615,50.123547 288.780762,50.363350 286.999023,50.002708 
z"/>
<path fill="#01C9F3" opacity="1.000000" stroke="none" 
	d="
M390.020813,100.954910 
	C396.322021,106.625435 399.170105,113.398407 399.037292,121.524277 
	C398.926239,128.317123 399.014526,135.113251 399.014526,141.850037 
	C386.836395,144.213562 381.456177,139.835632 381.444794,127.819115 
	C381.435120,117.569969 381.442810,107.320816 381.442810,95.883095 
	C384.769562,97.825691 387.256287,99.277748 390.020813,100.954910 
z"/>
<path fill="#5FD4F3" opacity="1.000000" stroke="none" 
	d="
M129.329651,139.326172 
	C125.030800,143.234650 120.215996,142.506683 115.163116,142.299805 
	C115.163116,133.619461 114.483627,125.130608 115.339714,116.799538 
	C116.349068,106.976776 122.316620,100.296890 132.550537,96.193481 
	C132.550537,98.532112 132.550552,100.236237 132.550537,101.940361 
	C132.550446,111.073135 132.805023,120.216812 132.414734,129.332886 
	C132.274475,132.609314 130.581390,135.819275 129.329651,139.326172 
z"/>
<path fill="#DBF4F7" opacity="1.000000" stroke="none" 
	d="
M215.041519,192.792862 
	C221.324463,192.802139 227.607391,192.811417 234.436462,193.197296 
	C236.091415,198.503296 239.424667,200.048584 244.163818,200.044418 
	C268.437622,200.023117 292.711517,200.119232 316.988647,200.631866 
	C316.942322,229.230759 316.892700,257.372101 316.466309,285.375122 
	C312.053467,284.571991 308.021301,283.360687 303.980652,283.331696 
	C279.160126,283.153381 254.337646,283.242340 229.515823,283.242340 
	C227.735016,283.242340 225.954208,283.242340 224.299469,283.242340 
	C221.076431,270.096802 213.378571,262.368958 200.366333,260.375214 
	C194.849869,259.529968 190.799484,262.045532 190.071777,266.572998 
	C189.341751,271.114838 192.285126,274.289062 198.080551,275.209900 
	C204.517792,276.232697 207.916382,279.197968 209.159836,285.607208 
	C211.566788,298.013550 213.644577,310.483795 216.052551,322.889923 
	C217.282089,329.224640 217.569321,336.319153 220.784912,341.524323 
	C223.818115,346.434174 223.223709,349.748474 221.195877,353.991608 
	C220.625397,355.185303 220.247330,356.472382 219.800491,357.723572 
	C215.956665,368.487122 222.388504,378.258942 233.751572,378.841766 
	C236.368042,378.975983 238.997299,378.861572 241.556305,378.861572 
	C242.324188,386.177612 244.567123,389.028992 249.229279,389.083557 
	C253.943222,389.138733 256.137665,386.470551 257.367767,379.141083 
	C262.944824,379.141083 268.529022,379.141083 274.064117,379.141083 
	C275.381012,386.625641 277.314117,389.021942 281.917114,389.078796 
	C286.551392,389.136017 288.352600,386.956451 290.179840,378.817719 
	C292.745483,378.817719 295.643250,379.493347 297.977356,378.635468 
	C300.518280,377.701599 303.572113,375.754486 304.470978,373.484406 
	C305.264191,371.481110 304.070251,367.850464 302.498260,366.011810 
	C301.193787,364.486145 298.065826,363.973450 295.738159,363.954742 
	C276.581635,363.801178 257.423279,363.872314 238.265503,363.858948 
	C236.874496,363.857971 235.483582,363.728363 233.647675,363.636292 
	C235.034729,359.998138 236.406479,356.978302 237.324951,353.826447 
	C238.221619,350.749481 239.902283,349.885223 243.079330,349.922577 
	C258.569977,350.104980 274.064240,350.060730 289.556702,349.983398 
	C299.195709,349.935272 305.967102,345.308014 309.892334,336.554077 
	C311.921356,332.028961 313.796997,327.435120 316.069031,323.155579 
	C316.595764,325.063446 316.968964,326.687927 316.969879,328.312622 
	C316.996124,375.760986 316.985229,423.209351 316.520966,470.748962 
	C268.657104,470.840210 221.252533,470.840210 173.753662,470.840210 
	C173.753662,380.243042 173.753662,290.330444 173.753662,200.009003 
	C184.247665,200.009003 194.550735,199.841263 204.844559,200.077011 
	C210.314545,200.202286 213.826996,198.283859 215.041519,192.792862 
M244.503006,407.741394 
	C241.507706,407.741669 238.511963,407.707855 235.517197,407.748016 
	C221.536835,407.935516 211.104843,417.911591 210.936432,431.231201 
	C210.764267,444.847931 221.059799,455.572662 235.047333,455.809875 
	C249.686722,456.058136 264.337006,456.061981 278.976196,455.808197 
	C292.948853,455.565979 303.259094,444.798737 303.062012,431.203003 
	C302.868744,417.870941 292.448364,407.879181 278.450134,407.760712 
	C267.468170,407.667786 256.484741,407.741638 244.503006,407.741394 
z"/>
<path fill="#040506" opacity="1.000000" stroke="none" 
	d="
M316.985382,200.174316 
	C292.711517,200.119232 268.437622,200.023117 244.163818,200.044418 
	C239.424667,200.048584 236.091415,198.503296 234.891937,193.192963 
	C236.011566,186.927277 238.091110,185.018524 243.819519,185.012604 
	C277.974731,184.977295 312.130066,184.976929 346.285278,185.010605 
	C352.876984,185.017105 355.415436,187.672150 355.434998,194.607346 
	C355.491821,214.767120 355.465027,234.927139 355.491699,255.557037 
	C355.484680,328.184692 355.457214,400.342377 355.428070,472.500061 
	C355.427307,474.333069 355.504822,476.172760 355.378479,477.997772 
	C355.035309,482.955231 352.445618,485.537903 347.455170,485.832214 
	C344.963470,485.979187 342.457367,485.882629 339.518127,485.982788 
	C337.083313,486.006927 335.088196,485.890411 333.093048,485.890045 
	C278.764160,485.880219 224.435287,485.883087 170.106400,485.881317 
	C160.565353,485.881012 158.510025,483.903564 158.509354,474.604645 
	C158.502762,381.778931 158.502579,288.953186 158.510437,196.127457 
	C158.511215,187.020279 160.565186,184.999512 169.681747,184.995758 
	C181.680771,184.990814 193.680222,185.055420 205.678589,184.966446 
	C210.745773,184.928879 213.958572,186.955063 214.939285,192.458710 
	C213.826996,198.283859 210.314545,200.202286 204.844559,200.077011 
	C194.550735,199.841263 184.247665,200.009003 173.753662,200.009003 
	C173.753662,290.330444 173.753662,380.243042 173.753662,470.840210 
	C221.252533,470.840210 268.657104,470.840210 316.983032,470.841675 
	C325.321442,470.843170 332.738464,470.843170 340.154236,470.843170 
	C340.154236,380.218811 340.154236,290.270966 340.154236,200.174301 
	C332.241608,200.174301 324.613495,200.174301 316.985382,200.174316 
z"/>
<path fill="#060605" opacity="1.000000" stroke="none" 
	d="
M286.540192,50.104973 
	C288.780762,50.363350 291.255615,50.123547 292.197968,51.211342 
	C294.080444,53.384350 296.307831,56.309391 296.255402,58.880264 
	C296.158142,63.647545 292.324615,65.377068 287.385071,65.387314 
	C272.341125,65.419518 257.693939,65.335625 243.046677,65.269310 
	C237.884262,65.245934 232.721573,65.283905 227.559143,65.260933 
	C220.879288,65.231209 217.295517,62.593658 217.321472,57.771587 
	C217.347397,52.953766 221.009354,50.246792 227.628525,50.238693 
	C247.112793,50.214855 266.597076,50.215923 286.540192,50.104973 
z"/>
<path fill="#040404" opacity="1.000000" stroke="none" 
	d="
M286.531372,77.009293 
	C289.327454,77.629372 292.527161,77.646530 293.780670,79.217041 
	C295.378754,81.219292 296.319214,84.630463 295.896332,87.158875 
	C295.226837,91.161667 291.593048,92.245392 287.378357,92.234283 
	C268.003998,92.263390 249.025894,92.199135 230.047806,92.133911 
	C228.382675,92.128189 226.713074,92.191757 225.053345,92.092690 
	C220.441055,91.817383 217.297440,88.748878 217.318253,84.628448 
	C217.338806,80.556999 220.546494,77.325378 225.124344,77.159737 
	C229.947266,76.985222 234.781296,77.117599 239.610474,77.115623 
	C255.097092,77.109306 270.583710,77.102867 286.531372,77.009293 
z"/>
<path fill="#030302" opacity="1.000000" stroke="none" 
	d="
M286.525024,103.911331 
	C289.563385,104.754890 292.943268,104.982513 294.483429,106.783478 
	C295.963043,108.513626 296.364288,112.084831 295.755341,114.467796 
	C294.832153,118.080376 291.429779,119.192116 287.385590,119.083923 
	C281.362366,119.108353 275.735962,119.102600 270.111694,118.990059 
	C265.026794,118.888321 261.939056,116.127708 261.826019,111.736664 
	C261.707062,107.117561 264.857819,104.118507 270.168427,104.017952 
	C275.464661,103.917679 280.764130,103.987885 286.525024,103.911331 
z"/>
<path fill="#030304" opacity="1.000000" stroke="none" 
	d="
M315.741943,322.872314 
	C313.796997,327.435120 311.921356,332.028961 309.892334,336.554077 
	C305.967102,345.308014 299.195709,349.935272 289.556702,349.983398 
	C274.064240,350.060730 258.569977,350.104980 243.079330,349.922577 
	C239.902283,349.885223 238.221619,350.749481 237.324951,353.826447 
	C236.406479,356.978302 235.034729,359.998138 233.647675,363.636292 
	C235.483582,363.728363 236.874496,363.857971 238.265503,363.858948 
	C257.423279,363.872314 276.581635,363.801178 295.738159,363.954742 
	C298.065826,363.973450 301.193787,364.486145 302.498260,366.011810 
	C304.070251,367.850464 305.264191,371.481110 304.470978,373.484406 
	C303.572113,375.754486 300.518280,377.701599 297.977356,378.635468 
	C295.643250,379.493347 292.745483,378.817719 290.179840,378.817719 
	C288.352600,386.956451 286.551392,389.136017 281.917114,389.078796 
	C277.314117,389.021942 275.381012,386.625641 274.064117,379.141083 
	C268.529022,379.141083 262.944824,379.141083 257.367767,379.141083 
	C256.137665,386.470551 253.943222,389.138733 249.229279,389.083557 
	C244.567123,389.028992 242.324188,386.177612 241.556305,378.861572 
	C238.997299,378.861572 236.368042,378.975983 233.751572,378.841766 
	C222.388504,378.258942 215.956665,368.487122 219.800491,357.723572 
	C220.247330,356.472382 220.625397,355.185303 221.195877,353.991608 
	C223.223709,349.748474 223.818115,346.434174 220.784912,341.524323 
	C217.569321,336.319153 217.282089,329.224640 216.052551,322.889923 
	C213.644577,310.483795 211.566788,298.013550 209.159836,285.607208 
	C207.916382,279.197968 204.517792,276.232697 198.080551,275.209900 
	C192.285126,274.289062 189.341751,271.114838 190.071777,266.572998 
	C190.799484,262.045532 194.849869,259.529968 200.366333,260.375214 
	C213.378571,262.368958 221.076431,270.096802 224.299469,283.242340 
	C225.954208,283.242340 227.735016,283.242340 229.515823,283.242340 
	C254.337646,283.242340 279.160126,283.153381 303.980652,283.331696 
	C308.021301,283.360687 312.053467,284.571991 316.678711,285.612915 
	C324.210083,292.008392 325.575104,297.360260 322.322845,305.792542 
	C320.127289,311.485077 317.935455,317.179016 315.741943,322.872314 
M232.902603,331.632355 
	C232.817886,334.591614 234.526886,335.053680 237.084869,335.041290 
	C254.211563,334.958221 271.339508,334.916870 288.465515,335.054382 
	C292.813538,335.089294 295.209991,333.126068 296.717072,329.304535 
	C300.063110,320.819824 303.543549,312.388214 306.934845,303.921234 
	C307.635101,302.172913 308.185669,300.364624 308.801300,298.595184 
	C281.273041,298.595184 254.266220,298.595184 226.877106,298.595184 
	C228.887146,309.588135 230.824005,320.180817 232.902603,331.632355 
z"/>
<path fill="#C7EEFC" opacity="1.000000" stroke="none" 
	d="
M316.069031,323.155579 
	C317.935455,317.179016 320.127289,311.485077 322.322845,305.792542 
	C325.575104,297.360260 324.210083,292.008392 317.055481,285.751251 
	C316.892700,257.372101 316.942322,229.230759 316.988647,200.631851 
	C324.613495,200.174301 332.241608,200.174301 340.154236,200.174301 
	C340.154236,290.270966 340.154236,380.218811 340.154236,470.843170 
	C332.738464,470.843170 325.321442,470.843170 317.442352,470.750427 
	C316.985229,423.209351 316.996124,375.760986 316.969879,328.312622 
	C316.968964,326.687927 316.595764,325.063446 316.069031,323.155579 
z"/>
<path fill="#030404" opacity="1.000000" stroke="none" 
	d="
M245.002502,407.741394 
	C256.484741,407.741638 267.468170,407.667786 278.450134,407.760712 
	C292.448364,407.879181 302.868744,417.870941 303.062012,431.203003 
	C303.259094,444.798737 292.948853,455.565979 278.976196,455.808197 
	C264.337006,456.061981 249.686722,456.058136 235.047333,455.809875 
	C221.059799,455.572662 210.764267,444.847931 210.936432,431.231201 
	C211.104843,417.911591 221.536835,407.935516 235.517197,407.748016 
	C238.511963,407.707855 241.507706,407.741669 245.002502,407.741394 
M236.894684,440.874237 
	C250.688141,440.871460 264.482544,440.962463 278.274597,440.822205 
	C284.233032,440.761627 288.027588,436.994537 288.042450,431.733276 
	C288.057526,426.400085 284.315552,422.819214 278.296631,422.784607 
	C264.005096,422.702454 249.712692,422.777527 235.420731,422.749084 
	C231.579407,422.741425 228.059952,424.075012 227.105347,427.746857 
	C226.359299,430.616486 226.459351,434.614838 227.989929,436.903595 
	C229.425735,439.050690 233.231979,439.612579 236.894684,440.874237 
z"/>
<path fill="#C895E4" opacity="1.000000" stroke="none" 
	d="
M232.831726,331.202942 
	C230.824005,320.180817 228.887146,309.588135 226.877106,298.595184 
	C254.266220,298.595184 281.273041,298.595184 308.801300,298.595184 
	C308.185669,300.364624 307.635101,302.172913 306.934845,303.921234 
	C303.543549,312.388214 300.063110,320.819824 296.717072,329.304535 
	C295.209991,333.126068 292.813538,335.089294 288.465515,335.054382 
	C271.339508,334.916870 254.211563,334.958221 237.084869,335.041290 
	C234.526886,335.053680 232.817886,334.591614 232.831726,331.202942 
z"/>
<path fill="#60D8F7" opacity="1.000000" stroke="none" 
	d="
M236.444916,440.873108 
	C233.231979,439.612579 229.425735,439.050690 227.989929,436.903595 
	C226.459351,434.614838 226.359299,430.616486 227.105347,427.746857 
	C228.059952,424.075012 231.579407,422.741425 235.420731,422.749084 
	C249.712692,422.777527 264.005096,422.702454 278.296631,422.784607 
	C284.315552,422.819214 288.057526,426.400085 288.042450,431.733276 
	C288.027588,436.994537 284.233032,440.761627 278.274597,440.822205 
	C264.482544,440.962463 250.688141,440.871460 236.444916,440.873108 
z"/>
</svg>